<?xml version="1.0" encoding="UTF-8"?>
<!DOCTYPE svg PUBLIC "-//W3C//DTD SVG 1.1//EN" "http://www.w3.org/Graphics/SVG/1.1/DTD/svg11.dtd">
<svg xmlns="http://www.w3.org/2000/svg" version="1.1" width="563px" height="136px" style="shape-rendering:geometricPrecision; text-rendering:geometricPrecision; image-rendering:optimizeQuality; fill-rule:evenodd; clip-rule:evenodd" xmlns:xlink="http://www.w3.org/1999/xlink">
<g><path style="opacity:1" fill="#000000" d="M 23.5,-0.5 C 26.8333,-0.5 30.1667,-0.5 33.5,-0.5C 43.6295,4.85688 54.2962,6.19022 65.5,3.5C 65.628,5.65472 65.128,7.65472 64,9.5C 56.1599,16.6511 47.8265,17.3177 39,11.5C 38.9417,36.5355 38.2751,61.5355 37,86.5C 34.8587,95.4772 29.3587,100.811 20.5,102.5C 21.9871,95.9119 23.1537,89.2453 24,82.5C 24.6667,57.8333 24.6667,33.1667 24,8.5C 14.7967,17.9604 11.13,29.2937 13,42.5C 14.1388,46.4043 15.4721,50.071 17,53.5C 13.0466,54.9591 9.54656,54.1258 6.5,51C 3.26226,48.0022 0.928927,44.5022 -0.5,40.5C -0.5,37.1667 -0.5,33.8333 -0.5,30.5C 3.41384,17.0068 11.4138,6.67347 23.5,-0.5 Z"/></g>
<g><path style="opacity:1" fill="#000000" d="M 562.5,68.5 C 562.5,72.8333 562.5,77.1667 562.5,81.5C 559.482,90.0231 553.482,93.1898 544.5,91C 538.019,86.2114 534.519,79.7114 534,71.5C 533.667,63.8333 533.333,56.1667 533,48.5C 528.614,61.4847 525.947,74.818 525,88.5C 518.75,91.7223 514.083,90.0556 511,83.5C 509.746,74.2016 508.746,64.8682 508,55.5C 506.664,66.8384 503.331,77.5051 498,87.5C 490.674,93.4448 484.174,92.7782 478.5,85.5C 470.963,93.4698 463.463,93.4698 456,85.5C 455.333,84.1667 454.667,82.8333 454,81.5C 447.202,91.3227 438.369,93.8227 427.5,89C 425.383,87.2691 423.883,85.1024 423,82.5C 420.079,86.0916 416.579,88.9249 412.5,91C 400.77,92.6166 394.27,87.4499 393,75.5C 392.667,65.8333 392.333,56.1667 392,46.5C 384.494,54.6638 379.661,64.1638 377.5,75C 378.612,86.1435 378.779,97.3102 378,108.5C 377.847,121.435 372.013,130.435 360.5,135.5C 356.833,135.5 353.167,135.5 349.5,135.5C 343.302,132.779 339.969,127.945 339.5,121C 340.207,117.8 341.04,114.633 342,111.5C 349.919,98.6647 357.585,85.6647 365,72.5C 365.667,70.5 365.667,68.5 365,66.5C 360.678,75.8181 354.511,83.6514 346.5,90C 336.107,93.3013 328.941,89.8013 325,79.5C 321.875,65.7577 323.709,52.591 330.5,40C 330.167,39.5 329.833,39 329.5,38.5C 321.812,42.3579 314.812,47.1913 308.5,53C 310.871,66.5555 307.204,78.2222 297.5,88C 284.173,94.8314 273.506,91.9981 265.5,79.5C 263.42,84.0766 260.42,87.9099 256.5,91C 247.879,92.9397 242.045,89.7731 239,81.5C 238.333,78.8333 237.667,76.1667 237,73.5C 236.667,64.8333 236.333,56.1667 236,47.5C 231.418,59.4112 228.751,71.7445 228,84.5C 221.695,89.2351 217.028,87.9017 214,80.5C 211.905,69.607 210.572,58.607 210,47.5C 207.211,52.5343 205.211,57.8677 204,63.5C 202.797,72.7119 201.63,81.8786 200.5,91C 196.044,91.8673 191.711,91.5339 187.5,90C 186.14,85.6367 185.306,81.1367 185,76.5C 175.356,91.1183 162.522,94.9517 146.5,88C 140.466,82.4356 136.633,75.6022 135,67.5C 134.667,62.5 134.333,57.5 134,52.5C 131.333,54.5 128.667,56.5 126,58.5C 125.284,69.3263 121.451,78.8263 114.5,87C 100.393,95.1294 89.06,92.2961 80.5,78.5C 78.3006,81.7175 75.9672,84.8842 73.5,88C 64.6034,93.878 57.77,92.0447 53,82.5C 51.2625,78.3388 50.2625,74.0055 50,69.5C 49.1783,56.5912 49.3449,43.7579 50.5,31C 55.0726,30.079 59.2392,30.9123 63,33.5C 63.3333,45.5 63.6667,57.5 64,69.5C 64.2963,72.7058 64.7963,75.8725 65.5,79C 66.0981,80.3012 67.0981,81.1345 68.5,81.5C 73.9878,78.8723 77.3212,74.5389 78.5,68.5C 76.38,54.4028 80.38,42.4028 90.5,32.5C 104.917,25.4893 115.75,29.156 123,43.5C 124.351,45.0097 126.018,46.0097 128,46.5C 135.302,43.2071 141.469,38.3738 146.5,32C 157.432,26.6534 166.599,28.8201 174,38.5C 178.167,46.4924 176,51.8258 167.5,54.5C 159.268,53.0847 157.601,49.0847 162.5,42.5C 160.367,35.2948 156.867,34.6281 152,40.5C 147.069,52.3276 147.403,63.9943 153,75.5C 160.513,83.0724 168.346,83.4058 176.5,76.5C 179.977,73.5188 182.477,69.8521 184,65.5C 185.24,54.5576 185.907,43.5576 186,32.5C 190.457,29.9577 194.791,30.2911 199,33.5C 199.333,38.8333 199.667,44.1667 200,49.5C 201.877,42.8586 204.71,36.692 208.5,31C 214.445,29.5319 218.945,31.3652 222,36.5C 222.169,43.5236 222.669,50.5236 223.5,57.5C 225.903,48.9586 228.903,40.6253 232.5,32.5C 233.852,31.1038 235.519,30.4371 237.5,30.5C 242.4,30.7254 246.233,32.7254 249,36.5C 249.333,49.1667 249.667,61.8333 250,74.5C 250.511,76.8782 251.178,79.2115 252,81.5C 254.044,82.772 255.878,82.4386 257.5,80.5C 261.538,75.0638 262.871,69.0638 261.5,62.5C 261.865,50.1892 266.532,40.0225 275.5,32C 284.227,27.2594 292.56,27.9261 300.5,34C 303.557,34.2565 306.557,34.7565 309.5,35.5C 310.429,36.6888 310.762,38.0222 310.5,39.5C 316.277,36.1092 322.277,32.9425 328.5,30C 332.5,29.3333 336.5,29.3333 340.5,30C 344.292,32.0527 345.458,35.2194 344,39.5C 340.721,48.9456 338.555,58.6123 337.5,68.5C 336.555,74.5944 338.388,79.5944 343,83.5C 349.167,79.6657 353.5,74.3323 356,67.5C 359.78,56.046 362.78,44.3794 365,32.5C 366.085,31.7069 367.252,31.0402 368.5,30.5C 371.637,31.1259 374.637,32.1259 377.5,33.5C 378.289,39.1152 378.789,44.7818 379,50.5C 382.372,43.4684 386.872,37.3017 392.5,32C 397.534,28.2225 402.034,28.7225 406,33.5C 406.333,47.8333 406.667,62.1667 407,76.5C 407.058,79.5587 408.391,81.892 411,83.5C 413.963,81.5394 416.629,79.206 419,76.5C 417.247,62.9297 419.247,49.9297 425,37.5C 432.841,27.1847 441.507,26.1847 451,34.5C 452.128,32.0102 454.128,31.0102 457,31.5C 462.64,30.8945 465.474,33.3945 465.5,39C 464.409,50.4821 464.243,61.9821 465,73.5C 465.606,76.43 466.44,79.2633 467.5,82C 470.308,82.9201 472.475,82.0867 474,79.5C 475.268,75.7634 477.101,72.43 479.5,69.5C 480.478,69.9767 481.311,70.6433 482,71.5C 482.942,74.9927 484.275,78.326 486,81.5C 487.396,83.5268 489.062,83.8602 491,82.5C 493.608,77.4054 495.608,72.0721 497,66.5C 499.333,55.1667 501.667,43.8333 504,32.5C 509.746,29.4189 514.746,30.4189 519,35.5C 519.247,44.2032 519.914,52.8699 521,61.5C 523.132,51.5673 526.132,41.9006 530,32.5C 535.939,29.4958 541.272,30.4958 546,35.5C 546.333,47.8333 546.667,60.1667 547,72.5C 547.241,75.2889 547.908,77.9556 549,80.5C 550.133,82.2112 551.633,82.7112 553.5,82C 555.974,78.3797 557.641,74.3797 558.5,70C 559.514,67.9709 560.847,67.4709 562.5,68.5 Z M 101.5,36.5 C 104.263,36.7438 106.429,38.0771 108,40.5C 112.785,53.6334 112.451,66.6334 107,79.5C 102.139,85.1255 98.1385,84.4588 95,77.5C 91.7383,66.1892 91.7383,54.8559 95,43.5C 96.3558,40.3142 98.5225,37.9809 101.5,36.5 Z M 285.5,36.5 C 288.988,37.1434 291.488,39.1434 293,42.5C 296.356,54.5912 296.023,66.5912 292,78.5C 286.622,85.5779 282.289,84.9112 279,76.5C 275.478,64.7396 275.812,53.0729 280,41.5C 281.73,39.5981 283.563,37.9314 285.5,36.5 Z M 439.5,40.5 C 443.287,39.8144 446.454,40.8144 449,43.5C 452.745,55.891 451.745,67.891 446,79.5C 441.449,83.8567 437.782,83.19 435,77.5C 431.946,68.1894 431.946,58.8561 435,49.5C 435.656,46.0042 437.156,43.0042 439.5,40.5 Z M 365.5,88.5 C 367.058,99.7765 366.558,111.11 364,122.5C 362.268,127.617 358.768,129.45 353.5,128C 350.806,125.347 349.973,122.18 351,118.5C 355.062,108.045 359.895,98.0453 365.5,88.5 Z"/></g>
</svg>
